<svg xmlns="http://www.w3.org/2000/svg" width="36.248" height="19.646" viewBox="0 0 36.248 19.646">
  <g id="btns-next-prev" transform="translate(-924.624 -3232.342)">
    <g id="그룹_1" data-name="그룹 1" transform="translate(925 3231.925)">
      <path id="Icon_ionic-ios-arrow-back" data-name="Icon ionic-ios-arrow-back" d="M7.993,8.064l3.826-3.5a.619.619,0,0,0,0-.933.775.775,0,0,0-1.023,0L6.461,7.6a.62.62,0,0,0-.021.911L10.792,12.5a.776.776,0,0,0,1.023,0,.619.619,0,0,0,0-.933Z" transform="translate(-6.626 -3.021)" fill="#aaa"/>
      <path id="Icon_ionic-ios-arrow-forward" data-name="Icon ionic-ios-arrow-forward" d="M10.286,8.065,6.46,4.568a.619.619,0,0,1,0-.933.778.778,0,0,1,1.023,0L11.818,7.6a.62.62,0,0,1,.021.911L7.487,12.5a.776.776,0,0,1-1.023,0,.619.619,0,0,1,0-.933Z" transform="translate(2.377 -3.026)" fill="#aaa"/>
      <g id="구성_요소_3_1" data-name="구성 요소 3 – 1" transform="translate(26.624 0.417)">
        <path id="Icon_metro-stop" data-name="Icon metro-stop" d="M1.428,1.285H5.62v9.248H1.428Z" transform="translate(-1.428 -1.285)" fill="#aaa"/>
        <path id="Icon_metro-stop-2" data-name="Icon metro-stop" d="M1.428,1.285H5.62v9.248H1.428Z" transform="translate(3.628 -1.285)" fill="#aaa"/>
      </g>
      <path id="Icon_ionic-ios-play" data-name="Icon ionic-ios-play" d="M5,4.005v9.316a.247.247,0,0,0,.37.221l7.6-4.658a.26.26,0,0,0,0-.439L5.37,3.787A.244.244,0,0,0,5,4.005Z" transform="translate(11.625 -3.335)" fill="#aaa"/>
    </g>
    <g id="그룹_1-2" data-name="그룹 1" transform="translate(925 3241.748)">
      <path id="Icon_ionic-ios-arrow-back-2" data-name="Icon ionic-ios-arrow-back" d="M7.993,8.064l3.826-3.5a.619.619,0,0,0,0-.933.775.775,0,0,0-1.023,0L6.461,7.6a.62.62,0,0,0-.021.911L10.792,12.5a.776.776,0,0,0,1.023,0,.619.619,0,0,0,0-.933Z" transform="translate(-6.626 -3.021)" fill="#fff"/>
      <path id="Icon_ionic-ios-arrow-forward-2" data-name="Icon ionic-ios-arrow-forward" d="M10.286,8.065,6.46,4.568a.619.619,0,0,1,0-.933.778.778,0,0,1,1.023,0L11.818,7.6a.62.62,0,0,1,.021.911L7.487,12.5a.776.776,0,0,1-1.023,0,.619.619,0,0,1,0-.933Z" transform="translate(2.377 -3.026)" fill="#fff"/>
      <g id="구성_요소_3_1-2" data-name="구성 요소 3 – 1" transform="translate(26.624 0.417)">
        <path id="Icon_metro-stop-3" data-name="Icon metro-stop" d="M1.428,1.285H5.62v9.248H1.428Z" transform="translate(-1.428 -1.285)" fill="#fff"/>
        <path id="Icon_metro-stop-4" data-name="Icon metro-stop" d="M1.428,1.285H5.62v9.248H1.428Z" transform="translate(3.628 -1.285)" fill="#fff"/>
      </g>
      <path id="Icon_ionic-ios-play-2" data-name="Icon ionic-ios-play" d="M5,4.005v9.316a.247.247,0,0,0,.37.221l7.6-4.658a.26.26,0,0,0,0-.439L5.37,3.787A.244.244,0,0,0,5,4.005Z" transform="translate(11.625 -3.335)" fill="#fff"/>
    </g>
  </g>
</svg>
