<svg xmlns="http://www.w3.org/2000/svg" width="49" height="25" viewBox="0 0 49 25">
  <path id="Icon-soundcloud_w" d="M8.53,23.729l.444,5.847L8.53,35.721a.4.4,0,0,1-.337.4.367.367,0,0,1-.322-.4l-.429-6.144.429-5.847a.361.361,0,0,1,.322-.378A.4.4,0,0,1,8.53,23.729Zm1.639-4.1c-.214,0-.36.2-.383.45l-.383,9.5.383,6.144c.023.252.168.45.383.45a.415.415,0,0,0,.36-.45l.444-6.144-.444-9.5A.415.415,0,0,0,10.169,19.627Zm1.953-2.168a.46.46,0,0,0-.429.477l-.337,11.695.337,6.1a.46.46,0,0,0,.429.477.442.442,0,0,0,.406-.477l.406-6.1-.406-11.695A.442.442,0,0,0,12.122,17.459ZM.551,26.149c-.107,0-.168.1-.191.225L0,29.577l.36,3.149c.023.126.084.225.191.225s.168-.1.191-.225l.429-3.149-.429-3.2c-.023-.126-.084-.225-.191-.225Zm1.807-1.97a.208.208,0,0,0-.191.225l-.49,5.173.49,5.047c0,.153.084.252.191.252a.244.244,0,0,0,.214-.225l.551-5.074L2.573,24.4a.244.244,0,0,0-.214-.225ZM4.3,23.154c-.13,0-.237.126-.253.3L3.6,29.577,4.043,35.5a.3.3,0,0,0,.253.279.262.262,0,0,0,.237-.279l.528-5.919L4.533,23.45A.268.268,0,0,0,4.3,23.154Zm1.937-.2a.3.3,0,0,0-.276.324l-.444,6.3.444,6.1A.3.3,0,0,0,6.233,36a.328.328,0,0,0,.3-.324l.49-6.1-.49-6.3A.328.328,0,0,0,6.233,22.956Zm18.485-9.977a.542.542,0,0,0-.322-.126.641.641,0,0,0-.429.171.99.99,0,0,0-.253.6V13.7l-.253,15.9.13,2.924.13,2.852a.763.763,0,0,0,.682.774.729.729,0,0,0,.659-.774l.3-5.775-.3-15.968a.893.893,0,0,0-.345-.648Zm-2.045,1.376a.606.606,0,0,0-.337-.126.586.586,0,0,0-.337.126.749.749,0,0,0-.276.6l-.023.153-.214,14.466s0,.027.237,5.9v.027a.754.754,0,0,0,.13.423.625.625,0,0,0,.49.279.585.585,0,0,0,.429-.225.671.671,0,0,0,.191-.5l.023-.6.237-5.272-.253-14.646a.842.842,0,0,0-.3-.6Zm-8.53,2.024a.515.515,0,0,0-.444.549l-.337,12.648.337,6.045a.46.46,0,1,0,.911,0l.383-6.045L14.61,16.928a.526.526,0,0,0-.467-.549Zm28.846,5.65a5.367,5.367,0,0,0-2.343.549c-.49-6.369-5.039-11.371-10.59-11.371a9.09,9.09,0,0,0-3.852.846c-.467.2-.6.4-.6.828V35.343a.8.8,0,0,0,.659.828H42.981C46.3,36.171,49,33.022,49,29.127c.008-3.922-2.7-7.1-6.011-7.1ZM20.269,16.6a.666.666,0,0,0-.6.7l-.253,12.3.253,5.9a.658.658,0,0,0,.6.675.624.624,0,0,0,.574-.675l.3-5.9-.3-12.3C20.821,16.9,20.591,16.6,20.269,16.6Zm-4.1-.7a.575.575,0,0,0-.49.6l-.3,13.071.3,6.018a.506.506,0,1,0,1,0l.337-6.018-.337-13.071A.592.592,0,0,0,16.165,15.9Zm2.045.306a.576.576,0,0,0-.528.621l-.3,12.747.3,5.973a.591.591,0,0,0,.528.621.581.581,0,0,0,.528-.621l.322-5.973-.322-12.747a.571.571,0,0,0-.528-.621Z" transform="translate(0 -11.207)" fill="#fff"/>
</svg>
